<svg width="16" height="16" viewBox="0 0 16 16" fill="none" xmlns="http://www.w3.org/2000/svg">
<path d="M12.6667 6.66671H13.3333C13.5101 6.66671 13.6797 6.73695 13.8047 6.86197C13.9298 6.98699 14 7.15656 14 7.33337V14C14 14.1769 13.9298 14.3464 13.8047 14.4714C13.6797 14.5965 13.5101 14.6667 13.3333 14.6667H2.66667C2.48986 14.6667 2.32029 14.5965 2.19526 14.4714C2.07024 14.3464 2 14.1769 2 14V7.33337C2 7.15656 2.07024 6.98699 2.19526 6.86197C2.32029 6.73695 2.48986 6.66671 2.66667 6.66671H3.33333V6.00004C3.33333 5.38721 3.45404 4.78037 3.68856 4.21418C3.92308 3.648 4.26683 3.13355 4.70017 2.70021C5.13351 2.26687 5.64796 1.92312 6.21414 1.6886C6.78033 1.45408 7.38716 1.33337 8 1.33337C8.61284 1.33337 9.21967 1.45408 9.78586 1.6886C10.352 1.92312 10.8665 2.26687 11.2998 2.70021C11.7332 3.13355 12.0769 3.648 12.3114 4.21418C12.546 4.78037 12.6667 5.38721 12.6667 6.00004V6.66671ZM3.33333 8.00004V13.3334H12.6667V8.00004H3.33333ZM7.33333 9.33337H8.66667V12H7.33333V9.33337ZM11.3333 6.66671V6.00004C11.3333 5.11599 10.9821 4.26814 10.357 3.64302C9.7319 3.0179 8.88406 2.66671 8 2.66671C7.11595 2.66671 6.2681 3.0179 5.64298 3.64302C5.01786 4.26814 4.66667 5.11599 4.66667 6.00004V6.66671H11.3333Z" fill="#919194"/>
</svg>
