<svg width="32" height="32" viewBox="0 0 32 32" fill="none" xmlns="http://www.w3.org/2000/svg">
<rect width="32" height="32" rx="16" fill="white" fill-opacity="0.3"/>
<path d="M16.6667 13.9999H19.6667L19.3334 15.3333H16.6667V21.3333H15.3334V15.3333H12.6667V13.9999H15.3334V12.7519C15.3334 11.5633 15.4574 11.1319 15.6894 10.6973C15.9168 10.2678 16.268 9.91659 16.6974 9.68925C17.1321 9.45725 17.5634 9.33325 18.7521 9.33325C19.1001 9.33325 19.4054 9.36659 19.6667 9.43325V10.6666H18.7521C17.8694 10.6666 17.6007 10.7186 17.3267 10.8653C17.1241 10.9733 16.9734 11.1239 16.8654 11.3266C16.7187 11.6006 16.6667 11.8693 16.6667 12.7519V13.9999Z" fill="white"/>
</svg>
