<svg width="16" height="16" viewBox="0 0 16 16" fill="none" xmlns="http://www.w3.org/2000/svg">
<path d="M3.99992 12.6667H1.99992C1.82311 12.6667 1.65354 12.5965 1.52851 12.4714C1.40349 12.3464 1.33325 12.1769 1.33325 12V5.33337C1.33325 5.15656 1.40349 4.98699 1.52851 4.86197C1.65354 4.73695 1.82311 4.66671 1.99992 4.66671H3.99992V2.00004C3.99992 1.82323 4.07016 1.65366 4.19518 1.52864C4.32021 1.40361 4.48977 1.33337 4.66659 1.33337H11.3333C11.5101 1.33337 11.6796 1.40361 11.8047 1.52864C11.9297 1.65366 11.9999 1.82323 11.9999 2.00004V4.66671H13.9999C14.1767 4.66671 14.3463 4.73695 14.4713 4.86197C14.5963 4.98699 14.6666 5.15656 14.6666 5.33337V12C14.6666 12.1769 14.5963 12.3464 14.4713 12.4714C14.3463 12.5965 14.1767 12.6667 13.9999 12.6667H11.9999V14C11.9999 14.1769 11.9297 14.3464 11.8047 14.4714C11.6796 14.5965 11.5101 14.6667 11.3333 14.6667H4.66659C4.48977 14.6667 4.32021 14.5965 4.19518 14.4714C4.07016 14.3464 3.99992 14.1769 3.99992 14V12.6667ZM3.99992 11.3334V10.6667C3.99992 10.4899 4.07016 10.3203 4.19518 10.1953C4.32021 10.0703 4.48977 10 4.66659 10H11.3333C11.5101 10 11.6796 10.0703 11.8047 10.1953C11.9297 10.3203 11.9999 10.4899 11.9999 10.6667V11.3334H13.3333V6.00004H2.66659V11.3334H3.99992ZM5.33325 2.66671V4.66671H10.6666V2.66671H5.33325ZM5.33325 11.3334V13.3334H10.6666V11.3334H5.33325ZM3.33325 6.66671H5.33325V8.00004H3.33325V6.66671Z" fill="#919194"/>
</svg>
