<svg width="32" height="32" viewBox="0 0 32 32" fill="none" xmlns="http://www.w3.org/2000/svg">
<rect width="32" height="32" rx="16" fill="white" fill-opacity="0.3"/>
<path d="M15.9999 13.9999C15.4695 13.9999 14.9608 14.2106 14.5857 14.5857C14.2106 14.9608 13.9999 15.4695 13.9999 15.9999C13.9999 16.5304 14.2106 17.0391 14.5857 17.4141C14.9608 17.7892 15.4695 17.9999 15.9999 17.9999C16.5304 17.9999 17.0391 17.7892 17.4141 17.4141C17.7892 17.0391 17.9999 16.5304 17.9999 15.9999C17.9999 15.4695 17.7892 14.9608 17.4141 14.5857C17.0391 14.2106 16.5304 13.9999 15.9999 13.9999ZM15.9999 12.6666C16.884 12.6666 17.7318 13.0178 18.3569 13.6429C18.9821 14.268 19.3333 15.1159 19.3333 15.9999C19.3333 16.884 18.9821 17.7318 18.3569 18.3569C17.7318 18.9821 16.884 19.3333 15.9999 19.3333C15.1159 19.3333 14.268 18.9821 13.6429 18.3569C13.0178 17.7318 12.6666 16.884 12.6666 15.9999C12.6666 15.1159 13.0178 14.268 13.6429 13.6429C14.268 13.0178 15.1159 12.6666 15.9999 12.6666ZM20.3333 12.4999C20.3333 12.7209 20.2455 12.9329 20.0892 13.0892C19.9329 13.2455 19.7209 13.3333 19.4999 13.3333C19.2789 13.3333 19.0669 13.2455 18.9107 13.0892C18.7544 12.9329 18.6666 12.7209 18.6666 12.4999C18.6666 12.2789 18.7544 12.0669 18.9107 11.9107C19.0669 11.7544 19.2789 11.6666 19.4999 11.6666C19.7209 11.6666 19.9329 11.7544 20.0892 11.9107C20.2455 12.0669 20.3333 12.2789 20.3333 12.4999ZM15.9999 10.6666C14.3506 10.6666 14.0813 10.6713 13.3139 10.7053C12.7913 10.7299 12.4406 10.7999 12.1153 10.9266C11.8259 11.0386 11.6173 11.1726 11.3953 11.3953C11.1866 11.5969 11.0262 11.843 10.9259 12.1153C10.7993 12.4419 10.7293 12.7919 10.7053 13.3139C10.6706 14.0499 10.6666 14.3073 10.6666 15.9999C10.6666 17.6493 10.6713 17.9186 10.7053 18.6859C10.7299 19.2079 10.7999 19.5593 10.9259 19.8839C11.0393 20.1739 11.1726 20.3826 11.3939 20.6039C11.6186 20.8279 11.8273 20.9619 12.1139 21.0726C12.4433 21.1999 12.7939 21.2706 13.3139 21.2946C14.0499 21.3293 14.3073 21.3333 15.9999 21.3333C17.6493 21.3333 17.9186 21.3286 18.6859 21.2946C19.2073 21.2699 19.5586 21.1999 19.8839 21.0739C20.1726 20.9613 20.3826 20.8273 20.6039 20.6059C20.8286 20.3813 20.9626 20.1726 21.0733 19.8859C21.1999 19.5573 21.2706 19.2059 21.2946 18.6859C21.3293 17.9499 21.3333 17.6926 21.3333 15.9999C21.3333 14.3506 21.3286 14.0813 21.2946 13.3139C21.2699 12.7926 21.1999 12.4406 21.0733 12.1153C20.9728 11.8433 20.8126 11.5972 20.6046 11.3953C20.4031 11.1865 20.1569 11.026 19.8846 10.9259C19.5579 10.7993 19.2073 10.7293 18.6859 10.7053C17.9499 10.6706 17.6926 10.6666 15.9999 10.6666ZM15.9999 9.33325C17.8113 9.33325 18.0373 9.33992 18.7479 9.37325C19.4579 9.40659 19.9413 9.51792 20.3666 9.68325C20.8066 9.85259 21.1773 10.0819 21.5479 10.4519C21.8869 10.7852 22.1492 11.1883 22.3166 11.6333C22.4813 12.0579 22.5933 12.5419 22.6266 13.2519C22.6579 13.9626 22.6666 14.1886 22.6666 15.9999C22.6666 17.8113 22.6599 18.0373 22.6266 18.7479C22.5933 19.4579 22.4813 19.9413 22.3166 20.3666C22.1497 20.8118 21.8873 21.215 21.5479 21.5479C21.2146 21.8868 20.8115 22.1491 20.3666 22.3166C19.9419 22.4813 19.4579 22.5933 18.7479 22.6266C18.0373 22.6579 17.8113 22.6666 15.9999 22.6666C14.1886 22.6666 13.9626 22.6599 13.2519 22.6266C12.5419 22.5933 12.0586 22.4813 11.6333 22.3166C11.1881 22.1496 10.7849 21.8872 10.4519 21.5479C10.1129 21.2147 9.85054 20.8116 9.68325 20.3666C9.51792 19.9419 9.40659 19.4579 9.37325 18.7479C9.34192 18.0373 9.33325 17.8113 9.33325 15.9999C9.33325 14.1886 9.33992 13.9626 9.37325 13.2519C9.40659 12.5413 9.51792 12.0586 9.68325 11.6333C9.85008 11.188 10.1125 10.7848 10.4519 10.4519C10.785 10.1127 11.1882 9.8504 11.6333 9.68325C12.0586 9.51792 12.5413 9.40659 13.2519 9.37325C13.9626 9.34192 14.1886 9.33325 15.9999 9.33325Z" fill="white"/>
</svg>
