<svg width="2279" height="1280" viewBox="0 0 2279 1280" fill="none" xmlns="http://www.w3.org/2000/svg">
<path fill-rule="evenodd" clip-rule="evenodd" d="M304.505 549.037V670.479C304.446 686.974 306.799 700.985 311.563 712.515C316.328 724.097 323.932 732.904 334.369 738.985C344.803 745.017 358.501 748.082 375.454 748.131C391.021 748.082 404.052 745.115 414.487 739.131C424.986 733.194 432.826 724.436 438.138 712.857C443.386 701.279 446.04 687.069 446.04 670.186V549.037H398.622V676.902C398.622 684.298 398.017 690.476 396.871 695.341C395.724 700.255 394.096 704.099 392.044 706.92C389.933 709.695 387.46 711.69 384.564 712.857C381.728 714.025 378.532 714.608 375.091 714.56C370.807 714.609 366.948 713.539 363.446 711.204C359.949 708.915 357.171 705.025 355.122 699.525C353.011 693.979 351.985 686.486 351.923 676.902V549.037H304.505ZM463.33 745.796H593.646V712.515H520.162V711.641L594.009 577.355V549.037H470.568V582.318H540.794V583.192L463.33 723.318V745.796ZM613.831 744.92C619.321 745.65 625.775 746.233 633.199 746.624C640.679 747.061 648.943 747.257 657.994 747.257C671.566 747.257 683.515 746.478 693.708 744.968C703.903 743.462 712.653 741.222 719.892 738.255C727.192 735.336 733.224 731.687 737.992 727.406C743.841 722.587 748.31 716.992 751.386 710.572C754.523 704.148 756.089 696.9 756.089 688.869C756.089 681.523 754.464 674.663 751.206 668.386C747.945 662.063 743.119 656.612 736.726 652.04C730.329 647.466 722.425 644.058 713.014 641.87V640.703C720.977 637.831 727.552 634.182 732.743 629.708C737.93 625.231 741.792 620.268 744.327 614.817C746.858 609.369 748.128 603.675 748.128 597.79C748.187 590.832 746.742 584.264 743.782 578.132C740.825 571.953 736.12 566.602 729.666 562.174C723.996 558.33 717.781 555.362 711.144 553.367C704.446 551.323 697.508 549.914 690.149 549.183C682.849 548.453 675.369 548.114 667.765 548.163C657.57 548.163 647.858 548.453 638.627 549.086C629.396 549.67 621.129 550.644 613.831 551.955V744.92ZM661.25 577.939C662.697 577.499 664.508 577.209 666.619 577.013C668.794 576.818 671.203 576.771 673.921 576.771C680.316 576.817 685.503 577.939 689.606 580.176C693.646 582.413 696.662 585.432 698.596 589.227C700.524 593.02 701.43 597.35 701.43 602.169C701.37 607.569 700.044 612.336 697.447 616.473C694.796 620.657 691.237 623.917 686.77 626.301C682.245 628.635 677.117 629.852 671.386 629.901H661.25V577.939ZM661.25 658.219H671.386C677.781 658.219 683.633 659.337 688.941 661.574C694.315 663.863 698.596 667.219 701.854 671.646C705.112 676.123 706.799 681.67 706.86 688.286C706.799 694.904 705.23 700.402 702.093 704.732C699.015 709.111 694.795 712.371 689.547 714.56C684.294 716.702 678.323 717.771 671.748 717.771C669.756 717.771 667.889 717.771 666.076 717.722C664.325 717.624 662.697 717.478 661.25 717.187V658.219ZM884.873 627.566H829.488V582.318H888.128V549.037H782.07V745.796H892.111V712.515H829.488V659.386H884.873V627.566ZM918.089 745.796H965.508V680.404L976.369 664.349L1011.84 745.796H1063.97L1008.22 634.573L1063.25 549.037H1010.76L978.179 612.094C976.189 616.327 974.258 620.608 972.386 624.889C970.517 629.17 968.586 633.405 966.595 637.491H965.508V549.037H918.089V745.796ZM1208.32 635.447H1142.8V666.684H1164.88V714.269C1163.98 714.56 1162.71 714.804 1161.14 714.95C1159.51 715.094 1157.64 715.143 1155.47 715.143C1149.8 715.192 1144.31 714.025 1138.94 711.739C1133.57 709.401 1128.74 705.704 1124.46 700.646C1120.12 695.537 1116.68 688.869 1114.14 680.649C1111.61 672.426 1110.28 662.402 1110.22 650.628C1110.28 637.879 1111.79 627.129 1114.75 618.322C1117.7 609.515 1121.86 602.41 1127.17 597.011C1132.42 591.66 1138.64 587.718 1145.64 585.285C1152.69 582.902 1160.3 581.685 1168.5 581.734C1174.29 581.734 1179.48 582.074 1184.07 582.804C1188.65 583.534 1192.75 584.653 1196.37 586.113L1204.34 553.125C1200.53 551.616 1195.29 550.253 1188.71 549.086C1182.07 547.967 1174.11 547.335 1164.88 547.286C1154.32 547.286 1144.07 548.502 1134.05 550.935C1124.04 553.416 1114.68 557.211 1105.94 562.321C1097.25 567.476 1089.59 574.046 1082.89 582.025C1076.25 590.004 1071.01 599.541 1067.2 610.585C1063.34 621.629 1061.29 634.28 1060.99 648.584C1060.75 659.921 1061.83 670.577 1064.19 680.6C1066.54 690.574 1070.04 699.623 1074.81 707.65C1079.57 715.727 1085.49 722.49 1092.48 727.99C1100.39 734.557 1109.8 739.471 1120.66 742.682C1131.46 745.943 1143.95 747.547 1158 747.547C1164.04 747.498 1170.19 747.159 1176.59 746.527C1182.98 745.845 1188.95 744.968 1194.56 743.899C1200.11 742.878 1204.7 741.711 1208.32 740.541V635.447ZM1340 627.566H1284.61V582.318H1343.26V549.037H1237.19V745.796H1347.24V712.515H1284.61V659.386H1340V627.566ZM1442 546.702C1431.13 546.751 1421.36 548.502 1412.73 551.955C1404.11 555.411 1396.56 560.228 1390.11 566.455C1383.65 572.683 1378.34 579.981 1374.06 588.399C1369.78 596.766 1366.58 605.866 1364.47 615.792C1362.36 625.668 1361.27 636.031 1361.27 646.833C1361.27 657.684 1362.18 668.095 1363.99 678.119C1365.79 688.093 1368.63 697.337 1372.49 705.802C1376.29 714.318 1381.24 721.713 1387.34 728.039C1393.37 734.362 1400.61 739.275 1409.11 742.78C1417.56 746.282 1427.33 748.082 1438.37 748.131C1450.02 748.18 1460.64 746.233 1470.23 742.294C1479.88 738.352 1488.21 732.173 1495.21 723.804C1502.21 715.485 1507.63 704.683 1511.5 691.497C1515.3 678.262 1517.23 662.403 1517.29 643.915C1517.35 634.815 1516.56 625.717 1515.11 616.522C1513.61 607.373 1511.13 598.615 1507.7 590.248C1504.26 581.927 1499.61 574.483 1493.82 567.965C1488.02 561.444 1480.9 556.286 1472.34 552.493C1463.83 548.698 1453.7 546.8 1442 546.702V546.702ZM1439.82 579.981C1445.25 580.03 1449.78 581.829 1453.4 585.383C1457.01 588.934 1459.91 593.75 1462.09 599.88C1464.26 606.013 1465.76 613.017 1466.73 620.852C1467.63 628.733 1468.06 636.956 1468.06 645.666C1468.06 655.689 1467.57 664.933 1466.55 673.349C1465.52 681.767 1463.95 689.065 1461.72 695.244C1459.55 701.471 1456.65 706.241 1453.09 709.646C1449.53 713.102 1445.25 714.804 1440.18 714.853C1430.53 714.853 1423.23 709.16 1418.16 697.872C1413.1 686.583 1410.56 669.749 1410.5 647.417C1410.5 633.259 1411.65 621.143 1413.94 611.12C1416.17 601.096 1419.49 593.411 1423.83 588.057C1428.24 582.706 1433.55 580.029 1439.82 579.981V579.981ZM1540.73 745.796H1588.15V664.64H1643.17V632.822H1588.15V582.318H1646.79V549.037H1540.73V745.796ZM1676.03 549.037V745.796H1723.45V549.037H1676.03ZM1742.19 745.796H1872.5V712.515H1799.02V711.641L1872.87 577.355V549.037H1749.43V582.318H1819.65V583.192L1742.19 723.318V745.796ZM1892.69 549.037V745.796H1940.11V549.037H1892.69ZM1975.86 745.796H2023.28V680.404L2034.14 664.349L2069.61 745.796H2121.74L2066 634.573L2121.02 549.037H2068.53L2035.95 612.094C2033.96 616.327 2032.03 620.608 2030.16 624.889C2028.29 629.17 2026.36 633.405 2024.37 637.491H2023.28V549.037H1975.86V745.796ZM2221.21 700.839L2231.7 745.796H2277.67L2230.25 549.037H2173.42L2120.57 745.796H2166.55L2177.4 700.839H2221.21ZM2182.11 671.063L2191.16 629.901C2191.83 627.031 2192.49 623.722 2193.21 619.975C2194 616.229 2194.72 612.287 2195.5 608.201C2196.29 604.115 2197.01 600.124 2197.8 596.134C2198.52 592.194 2199.18 588.546 2199.85 585.236H2200.93C2201.48 588.497 2202.08 592.048 2202.75 595.941C2203.41 599.834 2204.07 603.822 2204.8 607.911C2205.46 611.948 2206.18 615.889 2206.91 619.685C2207.57 623.48 2208.24 626.885 2208.9 629.901L2216.86 671.063H2182.11Z" fill="#006AB3"/>
<path d="M949.992 464.89L1094.07 41.9008C1105.97 11.9883 1163.41 3.09924 1181.76 48.8126L1252.45 491.583" stroke="#006AB3" stroke-width="33.4276" stroke-linecap="round" stroke-linejoin="round"/>
<path d="M1297.05 796.467L1363.17 1238.12C1375.07 1268.03 1439 1276.92 1457.35 1231.21L1600.84 789.769L2261.6 787.884" stroke="#006AB3" stroke-width="33.4276" stroke-linecap="round" stroke-linejoin="round"/>
<path fill-rule="evenodd" clip-rule="evenodd" d="M945.284 295.745C896.488 291.032 779.311 281.915 728.247 283.323C469.111 269.656 147.071 348.171 66.1072 522.749C5.06106 654.356 160.794 767.952 344.865 834.184L331.399 854.451C130.687 797.562 -42.2408 692.508 10.1197 501.416C96.9134 184.624 678.225 167.825 982.731 196.32L945.284 295.745Z" fill="#009EE0"/>
<path fill-rule="evenodd" clip-rule="evenodd" d="M700.015 359.43C740.536 360.473 894.97 366.749 923.519 372.931L891.427 460.71C749.886 438.345 577.536 430.419 433.754 448.7C305.564 464.99 188.673 506.539 149.706 578.39C106.559 657.947 239.824 759.407 370.503 799.104L359.89 815.826C230.098 770.275 68.7251 695.079 101.686 580.126C150.822 399.528 550.675 353.115 700.015 359.43V359.43Z" fill="#009035"/>
<path fill-rule="evenodd" clip-rule="evenodd" d="M340.556 840.671C284.986 821.231 17.102 717.804 52.8497 554.018L52.9381 553.646C87.7441 434.313 200.739 363.79 338.68 323.72C546.426 263.376 811.196 271.974 948.586 286.69L923.723 372.728C866.797 366.726 797.685 361.868 719.863 360.05C609.79 357.477 485.357 358.986 365.11 393.915C285.967 416.906 226.32 442.874 177.831 477.753C143.548 502.412 111.291 527.982 97.3197 575.762C81.8833 647.02 127.953 696.497 182.834 735.634C248.739 782.634 327.747 812.287 355.342 821.84L340.556 840.671Z" fill="white"/>
<path fill-rule="evenodd" clip-rule="evenodd" d="M340.394 840.888C284.827 821.448 17.1018 717.804 52.8495 554.018L52.9379 553.646C87.7439 434.313 200.738 363.79 338.68 323.72C546.426 263.376 811.196 271.974 948.586 286.69L945.792 296.36C808.355 281.873 546.249 273.752 340.99 333.373C205.894 372.619 95.3633 441.167 61.629 556.531C27.6581 713.358 296.257 815.172 346.833 832.677L340.394 840.888Z" fill="#E30016"/>
<path fill-rule="evenodd" clip-rule="evenodd" d="M355.342 821.841C314.481 807.357 72.6178 716.162 93.1592 592.606C103.298 531.638 167.407 469.465 275.366 424.426C369.634 385.097 497.646 358.598 652.527 357.245C673.275 357.065 745.023 358.511 813.079 361.397C856.725 363.25 898.889 365.693 925.252 368.676L922.019 377.509C895.656 374.655 854.88 372.305 812.736 370.518C744.726 367.635 673.21 366.188 652.598 366.366C498.903 367.711 371.998 393.953 278.637 432.903C173.657 476.699 111.465 536.275 101.844 594.144C82.2648 711.913 325.774 801.823 361.106 814.22L355.342 821.841Z" fill="#E30016"/>
<path fill-rule="evenodd" clip-rule="evenodd" d="M356.867 822.377L344.101 830.692Z" fill="white"/>
</svg>
