<svg width="16" height="16" viewBox="0 0 16 16" fill="none" xmlns="http://www.w3.org/2000/svg">
<path d="M13.3333 9.66667V15.6667L11.1113 14H9.33325V11.3333H11.1113L13.3333 9.66667ZM13.9999 2C14.1767 2 14.3463 2.07024 14.4713 2.19526C14.5963 2.32029 14.6666 2.48986 14.6666 2.66667V8.66667H13.3333V4.82467L8.04792 9.55867L2.66659 4.81V12.6667H7.99992V14H1.99992C1.82311 14 1.65354 13.9298 1.52851 13.8047C1.40349 13.6797 1.33325 13.5101 1.33325 13.3333V2.66667C1.33325 2.48986 1.40349 2.32029 1.52851 2.19526C1.65354 2.07024 1.82311 2 1.99992 2H13.9999ZM13.9999 11.3333C14.3459 11.3318 14.679 11.4648 14.9287 11.7043C15.1784 11.9437 15.3253 12.2709 15.3383 12.6166C15.3513 12.9624 15.2293 13.2996 14.9983 13.5571C14.7672 13.8147 14.445 13.9723 14.0999 13.9967L13.9999 14V11.3333ZM12.9999 3.33333H3.00725L8.04059 7.77467L12.9999 3.33333Z" fill="white"/>
</svg>
