<svg width="18" height="18" viewBox="0 0 18 18" fill="none" xmlns="http://www.w3.org/2000/svg">
<g opacity="0.8">
<path d="M13.5232 12.4627L16.7355 15.6742L15.6742 16.7355L12.4627 13.5232C11.2678 14.4812 9.7815 15.0022 8.25 15C4.524 15 1.5 11.976 1.5 8.25C1.5 4.524 4.524 1.5 8.25 1.5C11.976 1.5 15 4.524 15 8.25C15.0022 9.7815 14.4812 11.2678 13.5232 12.4627ZM12.0187 11.9062C12.9706 10.9274 13.5021 9.61532 13.5 8.25C13.5 5.349 11.1502 3 8.25 3C5.349 3 3 5.349 3 8.25C3 11.1502 5.349 13.5 8.25 13.5C9.61532 13.5021 10.9274 12.9706 11.9062 12.0187L12.0187 11.9062V11.9062Z" fill="white"/>
</g>
</svg>
