<svg width="16" height="16" viewBox="0 0 16 16" fill="none" xmlns="http://www.w3.org/2000/svg">
<path d="M7.99992 14.6666C4.31792 14.6666 1.33325 11.6819 1.33325 7.99992C1.33325 4.31792 4.31792 1.33325 7.99992 1.33325C11.6819 1.33325 14.6666 4.31792 14.6666 7.99992C14.6666 11.6819 11.6819 14.6666 7.99992 14.6666ZM6.47325 13.1113C5.81553 11.7161 5.4345 10.2067 5.35125 8.66659H2.70792C2.83764 9.69252 3.26253 10.6587 3.93096 11.4477C4.5994 12.2368 5.48259 12.8147 6.47325 13.1113ZM6.68659 8.66659C6.78725 10.2926 7.25192 11.8199 7.99992 13.1679C8.76813 11.7843 9.21688 10.2462 9.31325 8.66659H6.68659ZM13.2919 8.66659H10.6486C10.5653 10.2067 10.1843 11.7161 9.52659 13.1113C10.5172 12.8147 11.4004 12.2368 12.0689 11.4477C12.7373 10.6587 13.1622 9.69252 13.2919 8.66659ZM2.70792 7.33325H5.35125C5.4345 5.79311 5.81553 4.28371 6.47325 2.88859C5.48259 3.18517 4.5994 3.76309 3.93096 4.55212C3.26253 5.34114 2.83764 6.30732 2.70792 7.33325ZM6.68725 7.33325H9.31259C9.21642 5.75365 8.7679 4.21561 7.99992 2.83192C7.23171 4.21555 6.78296 5.7536 6.68659 7.33325H6.68725ZM9.52659 2.88859C10.1843 4.28371 10.5653 5.79311 10.6486 7.33325H13.2919C13.1622 6.30732 12.7373 5.34114 12.0689 4.55212C11.4004 3.76309 10.5172 3.18517 9.52659 2.88859Z" fill="white"/>
</svg>
