<svg width="16" height="16" viewBox="0 0 16 16" fill="none" xmlns="http://www.w3.org/2000/svg">
<path d="M14.6666 7.33333V14C14.6666 14.1768 14.5963 14.3464 14.4713 14.4714C14.3463 14.5964 14.1767 14.6667 13.9999 14.6667H13.3333C13.1564 14.6667 12.9869 14.5964 12.8618 14.4714C12.7368 14.3464 12.6666 14.1768 12.6666 14V13.3333H3.33325V14C3.33325 14.1768 3.26301 14.3464 3.13799 14.4714C3.01297 14.5964 2.8434 14.6667 2.66659 14.6667H1.99992C1.82311 14.6667 1.65354 14.5964 1.52851 14.4714C1.40349 14.3464 1.33325 14.1768 1.33325 14V7.33333L2.96459 4.07067C3.07534 3.84902 3.24567 3.66263 3.45645 3.53239C3.66724 3.40215 3.91014 3.33322 4.15792 3.33333H5.99992V2H9.99992V3.33333H11.8426C12.0902 3.33334 12.333 3.40233 12.5437 3.53256C12.7543 3.66279 12.9245 3.84912 13.0353 4.07067L14.6666 7.33333ZM13.3333 8.66667H2.66659V12H13.3333V8.66667ZM2.82392 7.33333H13.1759L11.8426 4.66667H4.15725L2.82392 7.33333ZM4.33325 11.3333C4.06804 11.3333 3.81368 11.228 3.62615 11.0404C3.43861 10.8529 3.33325 10.5985 3.33325 10.3333C3.33325 10.0681 3.43861 9.81376 3.62615 9.62623C3.81368 9.43869 4.06804 9.33333 4.33325 9.33333C4.59847 9.33333 4.85282 9.43869 5.04036 9.62623C5.2279 9.81376 5.33325 10.0681 5.33325 10.3333C5.33325 10.5985 5.2279 10.8529 5.04036 11.0404C4.85282 11.228 4.59847 11.3333 4.33325 11.3333ZM11.6666 11.3333C11.4014 11.3333 11.147 11.228 10.9595 11.0404C10.7719 10.8529 10.6666 10.5985 10.6666 10.3333C10.6666 10.0681 10.7719 9.81376 10.9595 9.62623C11.147 9.43869 11.4014 9.33333 11.6666 9.33333C11.9318 9.33333 12.1862 9.43869 12.3737 9.62623C12.5612 9.81376 12.6666 10.0681 12.6666 10.3333C12.6666 10.5985 12.5612 10.8529 12.3737 11.0404C12.1862 11.228 11.9318 11.3333 11.6666 11.3333Z" fill="#919194"/>
</svg>
