<svg width="32" height="32" viewBox="0 0 32 32" fill="none" xmlns="http://www.w3.org/2000/svg">
<rect width="32" height="32" rx="16" fill="white" fill-opacity="0.3"/>
<path d="M15.9999 21.3333C17.4144 21.3333 18.771 20.7713 19.7712 19.7712C20.7713 18.771 21.3333 17.4144 21.3333 15.9999C21.3333 14.5854 20.7713 13.2289 19.7712 12.2287C18.771 11.2285 17.4144 10.6666 15.9999 10.6666C14.5854 10.6666 13.2289 11.2285 12.2287 12.2287C11.2285 13.2289 10.6666 14.5854 10.6666 15.9999C10.6666 17.4144 11.2285 18.771 12.2287 19.7712C13.2289 20.7713 14.5854 21.3333 15.9999 21.3333ZM15.9999 22.6666C12.3179 22.6666 9.33325 19.6819 9.33325 15.9999C9.33325 12.3179 12.3179 9.33325 15.9999 9.33325C19.6819 9.33325 22.6666 12.3179 22.6666 15.9999C22.6666 19.6819 19.6819 22.6666 15.9999 22.6666ZM13.9266 16.7799L12.2613 16.2606C11.9013 16.1506 11.8993 15.9026 12.3419 15.7246L18.8306 13.2179C19.2073 13.0646 19.4206 13.2586 19.2986 13.7446L18.1939 18.9579C18.1166 19.3293 17.8933 19.4179 17.5833 19.2466L15.8826 17.9879L15.0899 18.7533C15.0086 18.8319 14.9426 18.8993 14.8173 18.9159C14.6926 18.9333 14.5899 18.8959 14.5146 18.6893L13.9346 16.7753L13.9266 16.7806V16.7799Z" fill="white"/>
</svg>
