<svg width="14" height="14" viewBox="0 0 14 14" fill="none" xmlns="http://www.w3.org/2000/svg">
<path d="M7.00008 12.8333C3.77833 12.8333 1.16675 10.2217 1.16675 6.99999C1.16675 3.77824 3.77833 1.16666 7.00008 1.16666C10.2218 1.16666 12.8334 3.77824 12.8334 6.99999C12.8334 10.2217 10.2218 12.8333 7.00008 12.8333ZM7.00008 11.6667C8.23776 11.6667 9.42474 11.175 10.2999 10.2998C11.1751 9.42465 11.6667 8.23767 11.6667 6.99999C11.6667 5.76231 11.1751 4.57533 10.2999 3.70016C9.42474 2.82499 8.23776 2.33332 7.00008 2.33332C5.7624 2.33332 4.57542 2.82499 3.70025 3.70016C2.82508 4.57533 2.33341 5.76231 2.33341 6.99999C2.33341 8.23767 2.82508 9.42465 3.70025 10.2998C4.57542 11.175 5.7624 11.6667 7.00008 11.6667ZM7.58342 6.99999H9.91675V8.16666H6.41675V4.08332H7.58342V6.99999Z" fill="#919194"/>
</svg>
